<svg xmlns="http://www.w3.org/2000/svg" viewBox="0 0 512 512">
  <!-- ADA favicon: the Point Blank logomark (asterisk + underscore) in
       chartreuse on the brand dark tile. The mark alone — "ADA" lettering
       is illegible at 16px; the glyph is the brand's punctuation. -->
  <rect width="512" height="512" rx="64" fill="#222020"/>
  <g transform="translate(256 256) scale(0.3) translate(-433.21 -600)" fill="#CAFF28">
    <rect x="120.27" y="854.75" width="625.82" height="224.97" rx="5.56" ry="5.56"/>
    <path d="M745.76,419.4l-71.85-205.25c-1.3-3.71-5.43-5.6-9.1-4.16l-117.37,46.21c-4.79,1.89-9.9-1.9-9.47-7.02l10.23-121.41c.34-4.04-2.85-7.5-6.92-7.5h-216.1c-4.06,0-7.26,3.47-6.92,7.5l10.23,121.41c.43,5.12-4.68,8.91-9.47,7.02l-117.37-46.21c-3.67-1.44-7.8.44-9.1,4.16l-71.85,205.25c-1.3,3.72.77,7.78,4.56,8.91l113.12,33.85c4.63,1.39,6.46,6.95,3.55,10.8l-73.44,97.11c-2.31,3.06-1.7,7.4,1.37,9.7l173.88,130.42c3.13,2.35,7.59,1.65,9.85-1.55l73.96-104.91c2.76-3.92,8.59-3.92,11.36,0l73.96,104.91c2.26,3.2,6.72,3.9,9.85,1.55l173.88-130.42c3.07-2.3,3.68-6.65,1.37-9.7l-73.44-97.11c-2.91-3.85-1.08-9.42,3.55-10.8l113.12-33.85c3.79-1.13,5.86-5.19,4.56-8.91Z"/>
  </g>
</svg>
